# xmcd CD database file
#
# Track frame offsets:
#	150
#	18862
#	42187
#	64932
#	87634
#	104737
#	126626
#	146805
#	167288
#	189337
#	210777
#	229352
#
# Disc length: 3243 seconds
#
# Revision: 2
# Processed by: cddbd v1.4PL0 Copyright (c) Steve Scherf et al.
# Submitted via: CDex 1.40Beta5
#
DISCID=a90ca90c
DTITLE=The Blue Band - Just a Dream
DYEAR=1998
DGENRE=Blues
TTITLE0=Smoke and Mirrors
TTITLE1=Cut You Loose
TTITLE2=Let Me Be Your Fire
TTITLE3=Just a Dream
TTITLE4=3 A.M. Backdoor Lady
TTITLE5=What Love'll Make You Do
TTITLE6=A Good Song (Is About a Woman)
TTITLE7=Don't Sting, Bite or Bug Me
TTITLE8=You're No Good
TTITLE9=Take the Wild Ride
TTITLE10=I Wanna Be a Weatherman
TTITLE11=Don't Drive My Car
EXTD=YEAR: 1998 ID3G:   0
EXTT0=
EXTT1=
EXTT2=
EXTT3=
EXTT4=
EXTT5=
EXTT6=
EXTT7=
EXTT8=
EXTT9=
EXTT10=
EXTT11=
PLAYORDER=
